<svg width="1333.33" height="773.5500000000001" xmlns="http://www.w3.org/2000/svg" clip-rule="evenodd">

 <g>
  <title>background</title>
  <rect fill="none" id="canvas_background" height="514" width="514" y="-1" x="-1"/>
 </g>
 <g>
  <title>Layer 1</title>
  <path stroke="null" fill="#ffffff" id="svg_1" fill-rule="nonzero" d="m1333.33,753.49c-48.5,12.33 -78.5,0.54 -105.41,-39.87l-191.42,-264.83l-27.67,-36.67l-223.54,302.38c-25.54,36.38 -52.33,52.2 -100,39.33l286.25,-384.25l-266.5,-347.09c45.83,-8.91 77.5,-4.38 105.62,36.67l198.54,268.13l200,-266.67c25.62,-36.38 53.17,-50.2 99.17,-36.8l-103.33,137l-140,182.29c-16.67,20.83 -14.38,35.09 0.96,55.2l267.33,355.18zm-1332.99,-390.33l23.41,-115.17c63.75,-227.92 325,-322.63 505.17,-181.8c105.29,82.83 131.46,200 126.25,331.25l-593.5,0c-8.91,236.25 161.13,378.83 377.91,306.09c76.04,-25.54 120.83,-85.09 143.25,-159.58c11.38,-37.33 30.2,-43.17 65.29,-32.5c-17.91,93.17 -58.33,171 -143.75,219.71c-127.62,72.91 -309.8,49.33 -405.62,-52c-57.09,-58.8 -80.67,-133.29 -91.25,-212.96c-1.67,-13.17 -5,-25.71 -7.5,-38.33c0.22,-21.56 0.34,-43.11 0.34,-64.67l0,-0.04zm62.41,-15.83l536.33,0c-3.5,-170.83 -109.87,-292.17 -255.25,-293.2c-159.58,-1.25 -274.17,117.2 -281.09,293.2l0.01,0z"/>
 </g>
</svg>