<svg width="122.88" height="101.57" xmlns="http://www.w3.org/2000/svg">

 <g>
  <title>background</title>
  <rect fill="none" id="canvas_background" height="514" width="514" y="-1" x="-1"/>
 </g>
 <g>
  <title>Layer 1</title>
  <g id="svg_1">
   <path fill="#ffffff" id="svg_2" d="m44.97,12.84l-17.2,0l-27.77,36.53l27.77,36.53l17.2,0l-27.77,-36.53l27.77,-36.53l0,0zm32.94,0l17.2,0l27.77,36.53l-27.77,36.53l-17.2,0l27.77,-36.53l-27.77,-36.53l0,0zm-7.74,-12.8l5.96,1.39c0.94,0.22 1.52,1.16 1.31,2.1l-22.5,96.69c-0.22,0.93 -1.16,1.52 -2.1,1.31l-5.95,-1.39c-0.94,-0.22 -1.52,-1.16 -1.31,-2.1l22.5,-96.69c0.22,-0.93 1.16,-1.52 2.09,-1.31l0,0l0,0z"/>
  </g>
 </g>
</svg>