<svg width="512" height="512" xmlns="http://www.w3.org/2000/svg">
 <!-- Created with UXWing SVG Editor - https://uxwing.com/svg-icon-editor/ -->

 <g>
  <title>background</title>
  <rect fill="none" id="canvas_background" height="514" width="514" y="-1" x="-1"/>
  <g display="none" overflow="visible" y="0" x="0" height="100%" width="100%" id="canvasGrid">
   <rect fill="url(#gridpattern)" stroke-width="0" y="0" x="0" height="100%" width="100%"/>
  </g>
 </g>
 <g>
  <title>Layer 1</title>
  <g stroke="null" id="svg_7">
   <g stroke="null" transform="matrix(4.174957165475476,0,0,4.150579776138888,-298.08728373507995,-294.35198483763827) " id="svg_5">
    <path fill="#4e93e6" stroke="null" id="svg_6" d="m194.158383,132.717382c0,16.966 -6.877,32.326 -17.996,43.445c-11.119,11.118 -26.479,17.995 -43.446,17.995c-16.966,0 -32.326,-6.877 -43.445,-17.995c-11.119,-11.118 -17.996,-26.479 -17.996,-43.445c0,-16.967 6.877,-32.327 17.996,-43.445c11.119,-11.119 26.479,-17.996 43.445,-17.996c16.967,0 32.327,6.877 43.446,17.996c11.119,11.119 17.996,26.479 17.996,43.445l0,0zm-42.166,9.936c1.783,1.735 4.637,1.695 6.373,-0.088c1.734,-1.784 1.695,-4.637 -0.09,-6.372l-22.52,-21.839l-3.142,3.23l3.146,-3.244c-1.791,-1.737 -4.653,-1.693 -6.39,0.098c-0.05,0.052 -0.099,0.104 -0.146,0.158l-22.082,21.597c-1.784,1.735 -1.823,4.588 -0.088,6.372c1.735,1.783 4.588,1.823 6.372,0.088l19.202,-18.779l19.365,18.779l0,0zm17.779,27.119c9.484,-9.482 15.35,-22.584 15.35,-37.055c0,-14.472 -5.865,-27.573 -15.35,-37.056c-9.482,-9.482 -22.584,-15.347 -37.055,-15.347c-14.471,0 -27.572,5.865 -37.055,15.348c-9.483,9.483 -15.348,22.584 -15.348,37.055c0,14.471 5.865,27.572 15.349,37.055c9.482,9.483 22.584,15.349 37.055,15.349c14.47,0 27.572,-5.866 37.054,-15.349l0,0z"/>
   </g>
  </g>
 </g>
</svg>