<svg width="122.88" height="95.95" xmlns="http://www.w3.org/2000/svg">
 <style type="text/css">.st0{fill-rule:evenodd;clip-rule:evenodd;}</style>

 <g>
  <title>background</title>
  <rect fill="none" id="canvas_background" height="514" width="514" y="-1" x="-1"/>
 </g>
 <g>
  <title>Layer 1</title>
  <g id="svg_1">
   <path fill="#4e93e6" id="svg_2" d="m8.94,0l105,0c4.92,0 8.94,4.02 8.94,8.94l0,0c0,4.92 -4.02,8.94 -8.94,8.94l-105,0c-4.92,0 -8.94,-4.02 -8.94,-8.94l0,0c0,-4.92 4.02,-8.94 8.94,-8.94l0,0zm0,78.07l105,0c4.92,0 8.94,4.02 8.94,8.94l0,0c0,4.92 -4.02,8.94 -8.94,8.94l-105,0c-4.92,0 -8.94,-4.02 -8.94,-8.94l0,0c0,-4.92 4.02,-8.94 8.94,-8.94l0,0zm0,-39.04l105,0c4.92,0 8.94,4.02 8.94,8.94l0,0c0,4.92 -4.02,8.94 -8.94,8.94l-105,0c-4.92,0 -8.94,-4.02 -8.94,-8.94l0,0c0,-4.91 4.02,-8.94 8.94,-8.94l0,0z" class="st0"/>
  </g>
 </g>
</svg>