<svg width="1333.33" height="1333.3" xmlns="http://www.w3.org/2000/svg" clip-rule="evenodd">

 <g>
  <title>background</title>
  <rect fill="none" id="canvas_background" height="1335.3" width="1335.33" y="-1" x="-1"/>
 </g>
 <g>
  <title>Layer 1</title>
  <path stroke="null" fill="#ffffff" id="svg_1" fill-rule="nonzero" d="m1331.51185,1070.300135c-48.367729,13.170432 -78.285911,0.576807 -105.122521,-42.587601l-190.897951,-282.881222l-27.594537,-39.169484l-222.930352,322.990688c-25.470346,38.859717 -52.187283,55.758033 -99.727276,42.010794l285.469326,-410.441074l-265.77319,-370.748191c45.70501,-9.517319 77.288639,-4.678548 105.331949,39.169484l197.998533,286.406155l199.454551,-284.846639c25.550128,-38.859717 53.024992,-53.62171 98.899539,-39.308345l-103.048194,146.338132l-139.618186,194.715168c-16.624537,22.249805 -14.340782,37.481789 0.957382,58.962517l266.600926,379.389618zm-1329.354611,-416.935496l23.346155,-123.020165c63.576138,-243.455379 324.113646,-344.620959 503.792278,-194.191769c105.002849,88.475821 131.101477,213.632309 125.905685,353.828512l-591.881381,0c-8.8857,252.353165 160.690559,404.651638 376.879347,326.953567c75.83262,-27.280846 120.500467,-90.889866 142.859322,-170.457219c11.348964,-39.87447 30.117637,-46.112534 65.111938,-34.71525c-17.861155,99.520611 -58.17092,182.655624 -143.357959,234.685773c-127.271949,77.879658 -308.9551,52.692409 -404.513775,-55.5444c-56.934302,-62.807899 -80.449993,-142.375252 -91.001139,-227.475683c-1.665446,-14.067688 -4.986364,-27.462433 -7.479546,-40.942632c0.2194,-23.029563 0.339073,-46.048444 0.339073,-69.078007l0,-0.042726zm62.239793,-16.908997l534.867297,0c-3.490455,-182.474037 -109.570358,-312.084759 -254.553871,-313.184965c-159.144786,-1.335202 -273.422272,125.188533 -280.323399,313.184965l0.009973,0z"/>
 </g>
</svg>